<svg xmlns="http://www.w3.org/2000/svg" viewBox="0 0 440 140" role="img" aria-label="Yağız Branda — 0 532 591 34 57">
  <rect x="4" y="4" width="432" height="132" rx="10" fill="none" stroke="#F7C400" stroke-width="5"/>
  <text x="220" y="64" text-anchor="middle"
        font-family="'Arial Black', 'Helvetica Neue', Arial, sans-serif" font-weight="900"
        font-size="50" letter-spacing="1" fill="#F7C400">YAĞIZ BRANDA</text>
  <g transform="translate(96 92)">
    <path d="M2 2c0-1 .8-2 2-2h4c1 0 1.8.7 2 1.7.13.9.35 1.8.68 2.6.2.5.08 1-.3 1.4l-1.6 1.6a13 13 0 0 0 5.4 5.4l1.6-1.6c.4-.4.9-.5 1.4-.3.8.3 1.7.5 2.6.65 1 .15 1.7 1 1.7 2v4c0 1.1-.9 2-2 1.98A19 19 0 0 1 2 5 2 2 0 0 1 2 2Z" fill="#F7C400" transform="scale(1.15)"/>
  </g>
  <text x="128" y="112" text-anchor="start"
        font-family="'Arial', sans-serif" font-weight="700"
        font-size="27" letter-spacing="1.5" fill="#F6E39A">0 532 591 34 57</text>
</svg>
